G04 EAGLE Gerber RS-274X export*
G75*
%MOMM*%
%FSLAX34Y34*%
%LPD*%
%IN*%
%IPPOS*%
%AMOC8*
5,1,8,0,0,1.08239X$1,22.5*%
G01*
%ADD10C,0.254000*%


D10*
X0Y0D02*
X787400Y0D01*
X787400Y342900D01*
X0Y342900D01*
X0Y0D01*
X45085Y244336D02*
X45017Y243299D01*
X44881Y242269D01*
X44679Y241249D01*
X44410Y240245D01*
X44075Y239261D01*
X43678Y238301D01*
X43218Y237369D01*
X42698Y236468D01*
X42121Y235604D01*
X41488Y234780D01*
X40803Y233998D01*
X40068Y233263D01*
X39286Y232578D01*
X38462Y231945D01*
X37598Y231368D01*
X36697Y230848D01*
X35765Y230388D01*
X34805Y229991D01*
X33821Y229656D01*
X32817Y229387D01*
X31797Y229185D01*
X30767Y229049D01*
X29730Y228981D01*
X28690Y228981D01*
X27653Y229049D01*
X26623Y229185D01*
X25603Y229387D01*
X24599Y229656D01*
X23615Y229991D01*
X22655Y230388D01*
X21723Y230848D01*
X20822Y231368D01*
X19958Y231945D01*
X19134Y232578D01*
X18352Y233263D01*
X17617Y233998D01*
X16932Y234780D01*
X16299Y235604D01*
X15722Y236468D01*
X15202Y237369D01*
X14742Y238301D01*
X14345Y239261D01*
X14010Y240245D01*
X13741Y241249D01*
X13539Y242269D01*
X13403Y243299D01*
X13335Y244336D01*
X13335Y245376D01*
X13403Y246413D01*
X13539Y247443D01*
X13741Y248463D01*
X14010Y249467D01*
X14345Y250451D01*
X14742Y251411D01*
X15202Y252343D01*
X15722Y253244D01*
X16299Y254108D01*
X16932Y254932D01*
X17617Y255714D01*
X18352Y256449D01*
X19134Y257134D01*
X19958Y257767D01*
X20822Y258344D01*
X21723Y258864D01*
X22655Y259324D01*
X23615Y259721D01*
X24599Y260056D01*
X25603Y260325D01*
X26623Y260527D01*
X27653Y260663D01*
X28690Y260731D01*
X29730Y260731D01*
X30767Y260663D01*
X31797Y260527D01*
X32817Y260325D01*
X33821Y260056D01*
X34805Y259721D01*
X35765Y259324D01*
X36697Y258864D01*
X37598Y258344D01*
X38462Y257767D01*
X39286Y257134D01*
X40068Y256449D01*
X40803Y255714D01*
X41488Y254932D01*
X42121Y254108D01*
X42698Y253244D01*
X43218Y252343D01*
X43678Y251411D01*
X44075Y250451D01*
X44410Y249467D01*
X44679Y248463D01*
X44881Y247443D01*
X45017Y246413D01*
X45085Y245376D01*
X45085Y244336D01*
X45085Y33770D02*
X45017Y32733D01*
X44881Y31703D01*
X44679Y30683D01*
X44410Y29679D01*
X44075Y28695D01*
X43678Y27735D01*
X43218Y26803D01*
X42698Y25902D01*
X42121Y25038D01*
X41488Y24214D01*
X40803Y23432D01*
X40068Y22697D01*
X39286Y22012D01*
X38462Y21379D01*
X37598Y20802D01*
X36697Y20282D01*
X35765Y19822D01*
X34805Y19425D01*
X33821Y19090D01*
X32817Y18821D01*
X31797Y18619D01*
X30767Y18483D01*
X29730Y18415D01*
X28690Y18415D01*
X27653Y18483D01*
X26623Y18619D01*
X25603Y18821D01*
X24599Y19090D01*
X23615Y19425D01*
X22655Y19822D01*
X21723Y20282D01*
X20822Y20802D01*
X19958Y21379D01*
X19134Y22012D01*
X18352Y22697D01*
X17617Y23432D01*
X16932Y24214D01*
X16299Y25038D01*
X15722Y25902D01*
X15202Y26803D01*
X14742Y27735D01*
X14345Y28695D01*
X14010Y29679D01*
X13741Y30683D01*
X13539Y31703D01*
X13403Y32733D01*
X13335Y33770D01*
X13335Y34810D01*
X13403Y35847D01*
X13539Y36877D01*
X13741Y37897D01*
X14010Y38901D01*
X14345Y39885D01*
X14742Y40845D01*
X15202Y41777D01*
X15722Y42678D01*
X16299Y43542D01*
X16932Y44366D01*
X17617Y45148D01*
X18352Y45883D01*
X19134Y46568D01*
X19958Y47201D01*
X20822Y47778D01*
X21723Y48298D01*
X22655Y48758D01*
X23615Y49155D01*
X24599Y49490D01*
X25603Y49759D01*
X26623Y49961D01*
X27653Y50097D01*
X28690Y50165D01*
X29730Y50165D01*
X30767Y50097D01*
X31797Y49961D01*
X32817Y49759D01*
X33821Y49490D01*
X34805Y49155D01*
X35765Y48758D01*
X36697Y48298D01*
X37598Y47778D01*
X38462Y47201D01*
X39286Y46568D01*
X40068Y45883D01*
X40803Y45148D01*
X41488Y44366D01*
X42121Y43542D01*
X42698Y42678D01*
X43218Y41777D01*
X43678Y40845D01*
X44075Y39885D01*
X44410Y38901D01*
X44679Y37897D01*
X44881Y36877D01*
X45017Y35847D01*
X45085Y34810D01*
X45085Y33770D01*
X481965Y244336D02*
X481897Y243299D01*
X481761Y242269D01*
X481559Y241249D01*
X481290Y240245D01*
X480955Y239261D01*
X480558Y238301D01*
X480098Y237369D01*
X479578Y236468D01*
X479001Y235604D01*
X478368Y234780D01*
X477683Y233998D01*
X476948Y233263D01*
X476166Y232578D01*
X475342Y231945D01*
X474478Y231368D01*
X473577Y230848D01*
X472645Y230388D01*
X471685Y229991D01*
X470701Y229656D01*
X469697Y229387D01*
X468677Y229185D01*
X467647Y229049D01*
X466610Y228981D01*
X465570Y228981D01*
X464533Y229049D01*
X463503Y229185D01*
X462483Y229387D01*
X461479Y229656D01*
X460495Y229991D01*
X459535Y230388D01*
X458603Y230848D01*
X457702Y231368D01*
X456838Y231945D01*
X456014Y232578D01*
X455232Y233263D01*
X454497Y233998D01*
X453812Y234780D01*
X453179Y235604D01*
X452602Y236468D01*
X452082Y237369D01*
X451622Y238301D01*
X451225Y239261D01*
X450890Y240245D01*
X450621Y241249D01*
X450419Y242269D01*
X450283Y243299D01*
X450215Y244336D01*
X450215Y245376D01*
X450283Y246413D01*
X450419Y247443D01*
X450621Y248463D01*
X450890Y249467D01*
X451225Y250451D01*
X451622Y251411D01*
X452082Y252343D01*
X452602Y253244D01*
X453179Y254108D01*
X453812Y254932D01*
X454497Y255714D01*
X455232Y256449D01*
X456014Y257134D01*
X456838Y257767D01*
X457702Y258344D01*
X458603Y258864D01*
X459535Y259324D01*
X460495Y259721D01*
X461479Y260056D01*
X462483Y260325D01*
X463503Y260527D01*
X464533Y260663D01*
X465570Y260731D01*
X466610Y260731D01*
X467647Y260663D01*
X468677Y260527D01*
X469697Y260325D01*
X470701Y260056D01*
X471685Y259721D01*
X472645Y259324D01*
X473577Y258864D01*
X474478Y258344D01*
X475342Y257767D01*
X476166Y257134D01*
X476948Y256449D01*
X477683Y255714D01*
X478368Y254932D01*
X479001Y254108D01*
X479578Y253244D01*
X480098Y252343D01*
X480558Y251411D01*
X480955Y250451D01*
X481290Y249467D01*
X481559Y248463D01*
X481761Y247443D01*
X481897Y246413D01*
X481965Y245376D01*
X481965Y244336D01*
X481965Y34024D02*
X481897Y32987D01*
X481761Y31957D01*
X481559Y30937D01*
X481290Y29933D01*
X480955Y28949D01*
X480558Y27989D01*
X480098Y27057D01*
X479578Y26156D01*
X479001Y25292D01*
X478368Y24468D01*
X477683Y23686D01*
X476948Y22951D01*
X476166Y22266D01*
X475342Y21633D01*
X474478Y21056D01*
X473577Y20536D01*
X472645Y20076D01*
X471685Y19679D01*
X470701Y19344D01*
X469697Y19075D01*
X468677Y18873D01*
X467647Y18737D01*
X466610Y18669D01*
X465570Y18669D01*
X464533Y18737D01*
X463503Y18873D01*
X462483Y19075D01*
X461479Y19344D01*
X460495Y19679D01*
X459535Y20076D01*
X458603Y20536D01*
X457702Y21056D01*
X456838Y21633D01*
X456014Y22266D01*
X455232Y22951D01*
X454497Y23686D01*
X453812Y24468D01*
X453179Y25292D01*
X452602Y26156D01*
X452082Y27057D01*
X451622Y27989D01*
X451225Y28949D01*
X450890Y29933D01*
X450621Y30937D01*
X450419Y31957D01*
X450283Y32987D01*
X450215Y34024D01*
X450215Y35064D01*
X450283Y36101D01*
X450419Y37131D01*
X450621Y38151D01*
X450890Y39155D01*
X451225Y40139D01*
X451622Y41099D01*
X452082Y42031D01*
X452602Y42932D01*
X453179Y43796D01*
X453812Y44620D01*
X454497Y45402D01*
X455232Y46137D01*
X456014Y46822D01*
X456838Y47455D01*
X457702Y48032D01*
X458603Y48552D01*
X459535Y49012D01*
X460495Y49409D01*
X461479Y49744D01*
X462483Y50013D01*
X463503Y50215D01*
X464533Y50351D01*
X465570Y50419D01*
X466610Y50419D01*
X467647Y50351D01*
X468677Y50215D01*
X469697Y50013D01*
X470701Y49744D01*
X471685Y49409D01*
X472645Y49012D01*
X473577Y48552D01*
X474478Y48032D01*
X475342Y47455D01*
X476166Y46822D01*
X476948Y46137D01*
X477683Y45402D01*
X478368Y44620D01*
X479001Y43796D01*
X479578Y42932D01*
X480098Y42031D01*
X480558Y41099D01*
X480955Y40139D01*
X481290Y39155D01*
X481559Y38151D01*
X481761Y37131D01*
X481897Y36101D01*
X481965Y35064D01*
X481965Y34024D01*
M02*
