G04 EAGLE Gerber RS-274X export*
G75*
%MOMM*%
%FSLAX34Y34*%
%LPD*%
%INSoldermask Top*%
%IPPOS*%
%AMOC8*
5,1,8,0,0,1.08239X$1,22.5*%
G01*
%ADD10C,1.611200*%
%ADD11C,3.378200*%
%ADD12R,0.853200X1.953200*%
%ADD13R,1.903200X1.103200*%
%ADD14C,1.711200*%
%ADD15R,1.711200X1.711200*%
%ADD16R,1.403200X3.503200*%
%ADD17C,1.059600*%


D10*
X69850Y25400D03*
X95250Y25400D03*
X120650Y25400D03*
X146050Y25400D03*
X171450Y25400D03*
X196850Y25400D03*
X222250Y25400D03*
X247650Y25400D03*
X273050Y25400D03*
X298450Y25400D03*
X323850Y25400D03*
X349250Y25400D03*
X374650Y25400D03*
X400050Y25400D03*
X425450Y25400D03*
X425450Y254000D03*
X400050Y254000D03*
X374650Y254000D03*
X349250Y254000D03*
X323850Y254000D03*
X298450Y254000D03*
X273050Y254000D03*
X247650Y254000D03*
X222250Y254000D03*
X196850Y254000D03*
X171450Y254000D03*
X146050Y254000D03*
X120650Y254000D03*
X95250Y254000D03*
X69850Y254000D03*
D11*
X29210Y244856D03*
X29210Y34290D03*
X466090Y244856D03*
X466090Y34544D03*
D12*
X336550Y107950D03*
X349250Y107950D03*
X361950Y107950D03*
X374650Y107950D03*
X387350Y107950D03*
X400050Y107950D03*
X412750Y107950D03*
X412750Y163950D03*
X400050Y163950D03*
X387350Y163950D03*
X374650Y163950D03*
X361950Y163950D03*
X349250Y163950D03*
X336550Y163950D03*
D13*
X381000Y319300D03*
X381000Y290300D03*
X317500Y319300D03*
X317500Y290300D03*
X247650Y319300D03*
X247650Y290300D03*
X184150Y319300D03*
X184150Y290300D03*
X349250Y319300D03*
X349250Y290300D03*
X285750Y290300D03*
X285750Y319300D03*
X215900Y319300D03*
X215900Y290300D03*
X152400Y319300D03*
X152400Y290300D03*
D14*
X749300Y179800D03*
X749300Y204800D03*
X749300Y229800D03*
X749300Y254800D03*
X749300Y279800D03*
D15*
X749300Y304800D03*
D14*
X673100Y179800D03*
X673100Y204800D03*
X673100Y229800D03*
X673100Y254800D03*
X673100Y279800D03*
D15*
X673100Y304800D03*
D14*
X603250Y64300D03*
X603250Y89300D03*
D15*
X603250Y114300D03*
D14*
X673100Y64300D03*
X673100Y89300D03*
D15*
X673100Y114300D03*
D14*
X749300Y39300D03*
X749300Y64300D03*
X749300Y89300D03*
D15*
X749300Y114300D03*
D14*
X533400Y254800D03*
X533400Y279800D03*
D15*
X533400Y304800D03*
D14*
X603250Y179800D03*
X603250Y204800D03*
X603250Y229800D03*
X603250Y254800D03*
X603250Y279800D03*
D15*
X603250Y304800D03*
D12*
X146550Y134500D03*
X159250Y134500D03*
X171950Y134500D03*
X184650Y134500D03*
X197350Y134500D03*
X210050Y134500D03*
X222750Y134500D03*
X222750Y190500D03*
X210050Y190500D03*
X197350Y190500D03*
X184650Y190500D03*
X171950Y190500D03*
X159250Y190500D03*
X146550Y190500D03*
D16*
X535940Y107950D03*
X510540Y43950D03*
X561340Y43950D03*
D17*
X267462Y161290D03*
X73152Y287020D03*
X94234Y287528D03*
X184150Y44450D03*
X62520Y50800D03*
X431800Y107950D03*
X410210Y228600D03*
X196850Y227620D03*
X158750Y273050D03*
X292100Y165100D03*
X232918Y277622D03*
X247650Y44450D03*
X292100Y44450D03*
X469900Y156210D03*
X374650Y50800D03*
X406400Y274030D03*
X337058Y279618D03*
X317500Y114300D03*
X149860Y209550D03*
X203200Y101600D03*
X533400Y44450D03*
X133350Y88900D03*
X133350Y152400D03*
X95250Y304800D03*
X203200Y302804D03*
X277114Y185710D03*
X387350Y89888D03*
X699770Y170152D03*
X457200Y177800D03*
X641350Y127000D03*
X641350Y165100D03*
X400050Y63500D03*
X508000Y143510D03*
X247650Y133350D03*
X342900Y63500D03*
X273050Y82550D03*
X584200Y25400D03*
X69850Y323850D03*
X317500Y142240D03*
X285750Y233680D03*
X292608Y209550D03*
X255560Y201168D03*
X495300Y177800D03*
X417068Y295946D03*
X304800Y177800D03*
X577850Y241300D03*
X245872Y219202D03*
X247396Y178562D03*
X565150Y190500D03*
X577850Y292100D03*
X349250Y180340D03*
X349250Y88900D03*
X429260Y171450D03*
X457200Y107950D03*
M02*
