G04 EAGLE Gerber RS-274X export*
G75*
%MOMM*%
%FSLAX34Y34*%
%LPD*%
%INBottom Copper*%
%IPPOS*%
%AMOC8*
5,1,8,0,0,1.08239X$1,22.5*%
G01*
%ADD10C,1.408000*%
%ADD11R,1.700000X0.900000*%
%ADD12R,0.900000X1.700000*%
%ADD13R,6.300000X6.100000*%
%ADD14R,1.500000X2.800000*%
%ADD15R,1.600000X1.200000*%
%ADD16C,1.508000*%
%ADD17R,1.508000X1.508000*%
%ADD18C,0.856400*%
%ADD19C,0.203200*%
%ADD20C,0.406400*%


D10*
X69850Y25400D03*
X95250Y25400D03*
X120650Y25400D03*
X146050Y25400D03*
X171450Y25400D03*
X196850Y25400D03*
X222250Y25400D03*
X247650Y25400D03*
X273050Y25400D03*
X298450Y25400D03*
X323850Y25400D03*
X349250Y25400D03*
X374650Y25400D03*
X400050Y25400D03*
X425450Y25400D03*
X425450Y254000D03*
X400050Y254000D03*
X374650Y254000D03*
X349250Y254000D03*
X323850Y254000D03*
X298450Y254000D03*
X273050Y254000D03*
X247650Y254000D03*
X222250Y254000D03*
X196850Y254000D03*
X171450Y254000D03*
X146050Y254000D03*
X120650Y254000D03*
X95250Y254000D03*
X69850Y254000D03*
D11*
X241300Y97050D03*
X241300Y68050D03*
X273050Y68050D03*
X273050Y97050D03*
D12*
X725700Y203200D03*
X696700Y203200D03*
X725700Y228600D03*
X696700Y228600D03*
X725700Y254000D03*
X696700Y254000D03*
X725700Y279400D03*
X696700Y279400D03*
D13*
X196850Y190100D03*
D14*
X219650Y127100D03*
X174050Y127100D03*
D13*
X107950Y190100D03*
D14*
X130750Y127100D03*
X85150Y127100D03*
D15*
X107950Y59200D03*
X107950Y93200D03*
X152400Y59200D03*
X152400Y93200D03*
X184150Y59200D03*
X184150Y93200D03*
X82550Y59200D03*
X82550Y93200D03*
D12*
X725700Y114300D03*
X696700Y114300D03*
X725700Y63500D03*
X696700Y63500D03*
D16*
X749300Y179800D03*
X749300Y204800D03*
X749300Y229800D03*
X749300Y254800D03*
X749300Y279800D03*
D17*
X749300Y304800D03*
D16*
X673100Y179800D03*
X673100Y204800D03*
X673100Y229800D03*
X673100Y254800D03*
X673100Y279800D03*
D17*
X673100Y304800D03*
D16*
X603250Y64300D03*
X603250Y89300D03*
D17*
X603250Y114300D03*
D16*
X673100Y64300D03*
X673100Y89300D03*
D17*
X673100Y114300D03*
D16*
X749300Y39300D03*
X749300Y64300D03*
X749300Y89300D03*
D17*
X749300Y114300D03*
D16*
X533400Y254800D03*
X533400Y279800D03*
D17*
X533400Y304800D03*
D16*
X603250Y179800D03*
X603250Y204800D03*
X603250Y229800D03*
X603250Y254800D03*
X603250Y279800D03*
D17*
X603250Y304800D03*
D12*
X626850Y203200D03*
X655850Y203200D03*
X626850Y228600D03*
X655850Y228600D03*
X626850Y254000D03*
X655850Y254000D03*
X626850Y279400D03*
X655850Y279400D03*
D18*
X267462Y161290D03*
D19*
X266954Y114554D02*
X259588Y107188D01*
X225044Y107188D01*
X225044Y82550D01*
X257302Y82550D01*
X257302Y54356D01*
X210820Y54356D01*
X209804Y53340D01*
X209804Y11176D01*
X171196Y11176D01*
X171196Y25146D01*
X171450Y25400D01*
X266954Y160782D02*
X267462Y161290D01*
X266954Y160782D02*
X266954Y114554D01*
D18*
X73152Y287020D03*
D19*
X73660Y287528D02*
X94234Y287528D01*
X73660Y287528D02*
X73152Y287020D01*
D18*
X94234Y287528D03*
X184150Y44450D03*
D19*
X158750Y44450D01*
X158750Y11176D01*
X57150Y11176D01*
X57150Y50800D01*
X62520Y50800D01*
D18*
X62520Y50800D03*
X431800Y107950D03*
D19*
X410210Y129540D01*
X410210Y228600D01*
D18*
X410210Y228600D03*
D19*
X431800Y107950D02*
X381000Y107950D01*
X361950Y88900D01*
X361950Y11176D01*
X222250Y11176D01*
X222250Y25400D01*
D18*
X196850Y227620D03*
D19*
X183170Y241300D01*
X158750Y241300D01*
X158750Y273050D01*
D18*
X158750Y273050D03*
X292100Y165100D03*
X232918Y277622D03*
D19*
X247650Y44450D02*
X247650Y25400D01*
D18*
X247650Y44450D03*
X292100Y44450D03*
D19*
X304800Y57150D02*
X304800Y152400D01*
X292100Y165100D01*
X304800Y57150D02*
X292100Y44450D01*
X261366Y272034D02*
X238506Y272034D01*
X232918Y277622D01*
X261366Y272034D02*
X261366Y221234D01*
X292100Y190500D01*
X292100Y165100D01*
D18*
X469900Y156210D03*
D19*
X472440Y187960D02*
X438150Y222250D01*
X472440Y187960D02*
X472440Y158750D01*
X469900Y156210D01*
X438150Y222250D02*
X438150Y273050D01*
X406400Y273050D01*
X469900Y156210D02*
X469900Y95250D01*
X416306Y41656D02*
X383794Y41656D01*
X374650Y50800D01*
D18*
X374650Y50800D03*
D19*
X416306Y41656D02*
X469900Y95250D01*
D18*
X406400Y274030D03*
D19*
X406400Y273050D01*
X330200Y44450D02*
X349250Y25400D01*
X337058Y246090D02*
X337058Y279618D01*
X337058Y246090D02*
X330200Y239232D01*
X330200Y114046D01*
D18*
X337058Y279618D03*
D19*
X330200Y114046D02*
X330200Y44450D01*
D18*
X317500Y114300D03*
D19*
X317754Y114046D01*
X330200Y114046D01*
D20*
X184150Y117000D02*
X174050Y127100D01*
X184150Y117000D02*
X184150Y93200D01*
X152400Y126959D02*
X152400Y207010D01*
X152400Y126959D02*
X174050Y127100D01*
X152400Y207010D02*
X149860Y209550D01*
D18*
X149860Y209550D03*
X203200Y101600D03*
D20*
X194310Y92710D01*
X184640Y92710D01*
X184150Y93200D01*
X184150Y59200D02*
X152400Y59200D01*
X133350Y59200D01*
X107950Y59200D02*
X82550Y59200D01*
X107950Y59200D02*
X107950Y38100D01*
X673100Y133350D02*
X673100Y179800D01*
X673100Y133350D02*
X673100Y114300D01*
X749102Y89498D02*
X749300Y89300D01*
X749102Y89498D02*
X711200Y89100D01*
X711200Y133350D01*
X673100Y133350D01*
X749300Y39300D02*
X767080Y39370D01*
X767080Y88900D01*
X749300Y89300D01*
X603250Y114300D02*
X584200Y114300D01*
X533400Y44450D01*
D18*
X533400Y44450D03*
D20*
X673100Y179800D02*
X749300Y179800D01*
X133350Y88900D02*
X133350Y59200D01*
D18*
X133350Y88900D03*
D19*
X533400Y304800D02*
X558800Y304800D01*
X557344Y254800D02*
X533400Y254800D01*
D18*
X133350Y152400D03*
D19*
X133350Y171450D01*
X127000Y171450D01*
X196850Y191516D02*
X196850Y203200D01*
X196850Y191516D02*
X196850Y190100D01*
X197990Y200382D02*
X209492Y196669D01*
X196850Y190100D02*
X189939Y192331D01*
D20*
X121050Y203200D02*
X107950Y190100D01*
X95250Y203200D02*
X121050Y203200D01*
D19*
X107950Y190500D02*
X127000Y171450D01*
X107950Y190500D02*
X95250Y203200D01*
X189939Y192331D02*
X197990Y200382D01*
D20*
X133350Y59200D02*
X107950Y59200D01*
D18*
X95250Y304800D03*
D20*
X107950Y38100D02*
X95250Y25400D01*
X273050Y25400D02*
X273050Y68050D01*
D18*
X203200Y302804D03*
D20*
X209492Y296512D01*
X209492Y196669D01*
D19*
X107950Y241300D02*
X95250Y254000D01*
X107950Y241300D02*
X107950Y190500D01*
D20*
X273050Y68050D02*
X273326Y68326D01*
X286258Y68326D01*
X292100Y74168D01*
X292100Y144272D02*
X279400Y156972D01*
X279400Y170180D01*
X278765Y170815D01*
X274828Y174752D01*
X261620Y174752D01*
X254000Y167132D01*
X254000Y164592D01*
X223774Y164592D02*
X196850Y191516D01*
X292100Y144272D02*
X292100Y74168D01*
X254000Y164592D02*
X223774Y164592D01*
X107950Y190100D02*
X107950Y196850D01*
X139700Y228600D01*
X171450Y228600D02*
X196850Y203200D01*
X171450Y228600D02*
X139700Y228600D01*
D19*
X557344Y254800D02*
X558800Y256256D01*
X558800Y304800D01*
D18*
X277114Y185710D03*
D20*
X277114Y172466D01*
D19*
X278765Y170815D01*
X725700Y203200D02*
X747700Y203200D01*
X749300Y204800D01*
D18*
X387350Y89888D03*
D19*
X387350Y50800D02*
X412750Y50800D01*
X442976Y81026D01*
D18*
X699770Y170152D03*
D19*
X720344Y170152D02*
X728190Y162306D01*
X720344Y170152D02*
X699770Y170152D01*
X728190Y162306D02*
X768350Y162306D01*
X768350Y197612D01*
X761162Y204800D01*
X749300Y204800D01*
X447040Y190500D02*
X419156Y190500D01*
X447040Y190500D02*
X457200Y180340D01*
X457200Y177800D01*
D18*
X457200Y177800D03*
D19*
X387350Y89888D02*
X387350Y50800D01*
X419156Y137104D02*
X419156Y190500D01*
X442976Y113284D02*
X442976Y81026D01*
X442976Y113284D02*
X419156Y137104D01*
X748275Y228775D02*
X749300Y229800D01*
X748275Y228775D02*
X744835Y228600D01*
X725700Y228600D01*
X725700Y254000D02*
X748500Y254000D01*
X749300Y254800D01*
X748372Y278872D02*
X726597Y278503D01*
X725700Y279400D01*
X748372Y278872D02*
X749300Y279800D01*
D18*
X641350Y127000D03*
D19*
X641350Y165100D01*
D18*
X641350Y165100D03*
X400050Y63500D03*
D19*
X219650Y127100D02*
X215900Y123350D01*
D20*
X224050Y68050D02*
X241300Y68050D01*
X224050Y68050D02*
X215900Y76200D01*
X215900Y123350D01*
X532397Y280803D02*
X533400Y279800D01*
X532397Y280803D02*
X512572Y280554D01*
X512572Y148082D01*
X508000Y143510D01*
D18*
X508000Y143510D03*
D20*
X152400Y93200D02*
X152400Y76200D01*
X215900Y76200D01*
X241337Y127037D02*
X247650Y133350D01*
X241337Y127037D02*
X219650Y127100D01*
D18*
X247650Y133350D03*
D20*
X107950Y127000D02*
X107950Y93200D01*
X107950Y127000D02*
X108050Y127100D01*
X130750Y127100D01*
X152400Y114300D02*
X152400Y93200D01*
X139600Y127100D02*
X130750Y127100D01*
X139600Y127100D02*
X152400Y114300D01*
X107950Y93200D02*
X107950Y76200D01*
X50800Y76200D01*
X50800Y221234D01*
X69850Y240284D02*
X69850Y254000D01*
X69850Y240284D02*
X50800Y221234D01*
D19*
X241300Y97050D02*
X273050Y97050D01*
X425450Y241300D02*
X425450Y254000D01*
X338074Y218440D02*
X338074Y68326D01*
X342900Y63500D01*
D18*
X342900Y63500D03*
X273050Y82550D03*
D19*
X273050Y97050D01*
X360934Y241300D02*
X425450Y241300D01*
X360934Y241300D02*
X338074Y218440D01*
X696700Y254000D02*
X696700Y279400D01*
X696700Y254000D02*
X696700Y228600D01*
X696700Y203200D01*
X696700Y114300D02*
X696700Y63500D01*
X661496Y186007D02*
X667909Y192420D01*
X661496Y101172D02*
X681692Y101172D01*
X661496Y101172D02*
X661496Y186007D01*
X692197Y111676D02*
X681692Y101172D01*
X685920Y192420D02*
X696700Y203200D01*
X685920Y192420D02*
X667909Y192420D01*
X696700Y114300D02*
X692197Y111676D01*
D18*
X584200Y25400D03*
D19*
X585470Y24130D01*
X684762Y24130D01*
X696700Y36068D02*
X696700Y63500D01*
X696700Y36068D02*
X684762Y24130D01*
X697484Y323850D02*
X69850Y323850D01*
X696700Y304490D02*
X697484Y323850D01*
X696700Y304490D02*
X696700Y279400D01*
D18*
X69850Y323850D03*
D19*
X748500Y63500D02*
X749300Y64300D01*
X748500Y63500D02*
X725700Y63500D01*
X724408Y62208D01*
X724408Y15240D01*
X518668Y15240D01*
X518668Y116332D02*
X482600Y152400D01*
X518668Y116332D02*
X518668Y15240D01*
X482600Y152400D02*
X482600Y181356D01*
X496824Y283464D02*
X496316Y283972D01*
X366268Y283972D01*
X350520Y268224D01*
X350520Y255270D02*
X349250Y254000D01*
X482600Y181356D02*
X496824Y195580D01*
X496824Y283464D01*
X350520Y268224D02*
X350520Y255270D01*
D18*
X317500Y142240D03*
D19*
X725700Y114300D02*
X749300Y114300D01*
X323850Y222250D02*
X323850Y254000D01*
X323850Y222250D02*
X317500Y215900D01*
X317500Y142240D01*
D20*
X514350Y311150D02*
X520700Y317500D01*
X641350Y317500D01*
X641350Y177800D01*
X647700Y171450D01*
X654050Y171450D01*
X654050Y88900D01*
X672700Y88900D01*
X673100Y89300D01*
X514350Y311150D02*
X127000Y311150D01*
X120650Y304800D01*
X120650Y273050D01*
X119888Y272288D01*
X82550Y272288D01*
X82550Y237490D01*
X62738Y217678D02*
X62738Y127762D01*
X62738Y217678D02*
X82550Y237490D01*
X82550Y124500D02*
X82550Y93200D01*
X82550Y124500D02*
X85150Y127100D01*
X63400Y127100D01*
X62738Y127762D01*
D19*
X655850Y203200D02*
X673100Y204800D01*
X673100Y229800D02*
X655850Y228600D01*
X655850Y254000D02*
X673100Y254800D01*
X673100Y279800D02*
X655850Y279400D01*
D18*
X285750Y233680D03*
D19*
X298450Y244348D02*
X298450Y254000D01*
X298450Y244348D02*
X287782Y233680D01*
X285750Y233680D01*
D18*
X292608Y209550D03*
D19*
X273050Y229108D01*
X273050Y254000D01*
D18*
X255560Y201168D03*
D19*
X254036Y202692D02*
X254036Y237708D01*
X254036Y202692D02*
X255560Y201168D01*
X247650Y244094D02*
X247650Y254000D01*
X247650Y244094D02*
X254036Y237708D01*
D18*
X495300Y177800D03*
X417068Y295946D03*
D19*
X504952Y187452D02*
X495300Y177800D01*
X498856Y294894D02*
X418120Y294894D01*
X417068Y295946D01*
X498856Y294894D02*
X504444Y289306D01*
X504444Y187960D02*
X504952Y187452D01*
X504444Y187960D02*
X504444Y289306D01*
X614642Y217424D02*
X626850Y203200D01*
X614642Y217424D02*
X577850Y217424D01*
D18*
X304800Y177800D03*
D19*
X552450Y273314D02*
X552450Y292100D01*
X552450Y273314D02*
X546852Y267716D01*
X520954Y267716D01*
X520954Y171450D01*
X577850Y171450D01*
X577850Y217424D01*
X552450Y292100D02*
X514350Y292100D01*
X501650Y304800D01*
X311150Y304800D01*
X304800Y215900D02*
X304800Y177800D01*
X304800Y215900D02*
X311150Y222250D01*
X311150Y304800D01*
X615078Y242316D02*
X626850Y228600D01*
X615078Y242316D02*
X578866Y242316D01*
X577850Y241300D01*
D18*
X577850Y241300D03*
X245872Y219202D03*
D19*
X245364Y218694D01*
X245364Y180594D01*
X247396Y178562D01*
D18*
X247396Y178562D03*
D19*
X615950Y266700D02*
X626850Y254000D01*
D18*
X565150Y190500D03*
D19*
X565150Y266700D01*
X615950Y266700D01*
X626850Y279400D02*
X622300Y292100D01*
X577850Y292100D01*
D18*
X577850Y292100D03*
X349250Y180340D03*
D19*
X349250Y88900D01*
D18*
X349250Y88900D03*
X429260Y171450D03*
D19*
X429260Y136906D01*
X457200Y108966D02*
X457200Y107950D01*
X457200Y108966D02*
X429260Y136906D01*
D18*
X457200Y107950D03*
D19*
X349250Y180340D02*
X349250Y218440D01*
X366740Y235930D02*
X424470Y235930D01*
X429006Y231394D01*
X467070Y181852D02*
X467070Y165100D01*
X429006Y219916D02*
X429006Y231394D01*
X429006Y219916D02*
X467070Y181852D01*
X467070Y165100D02*
X435610Y165100D01*
X429260Y171450D01*
X366740Y235930D02*
X349250Y218440D01*
M02*
