G04 EAGLE Gerber RS-274X export*
G75*
%MOMM*%
%FSLAX34Y34*%
%LPD*%
%INTop Copper*%
%IPPOS*%
%AMOC8*
5,1,8,0,0,1.08239X$1,22.5*%
G01*
%ADD10C,1.408000*%
%ADD11R,0.650000X1.750000*%
%ADD12R,1.700000X0.900000*%
%ADD13C,1.508000*%
%ADD14R,1.508000X1.508000*%
%ADD15R,1.200000X3.300000*%
%ADD16C,0.203200*%
%ADD17C,0.856400*%
%ADD18C,0.406400*%


D10*
X69850Y25400D03*
X95250Y25400D03*
X120650Y25400D03*
X146050Y25400D03*
X171450Y25400D03*
X196850Y25400D03*
X222250Y25400D03*
X247650Y25400D03*
X273050Y25400D03*
X298450Y25400D03*
X323850Y25400D03*
X349250Y25400D03*
X374650Y25400D03*
X400050Y25400D03*
X425450Y25400D03*
X425450Y254000D03*
X400050Y254000D03*
X374650Y254000D03*
X349250Y254000D03*
X323850Y254000D03*
X298450Y254000D03*
X273050Y254000D03*
X247650Y254000D03*
X222250Y254000D03*
X196850Y254000D03*
X171450Y254000D03*
X146050Y254000D03*
X120650Y254000D03*
X95250Y254000D03*
X69850Y254000D03*
D11*
X336550Y107950D03*
X349250Y107950D03*
X361950Y107950D03*
X374650Y107950D03*
X387350Y107950D03*
X400050Y107950D03*
X412750Y107950D03*
X412750Y163950D03*
X400050Y163950D03*
X387350Y163950D03*
X374650Y163950D03*
X361950Y163950D03*
X349250Y163950D03*
X336550Y163950D03*
D12*
X381000Y319300D03*
X381000Y290300D03*
X317500Y319300D03*
X317500Y290300D03*
X247650Y319300D03*
X247650Y290300D03*
X184150Y319300D03*
X184150Y290300D03*
X349250Y319300D03*
X349250Y290300D03*
X285750Y290300D03*
X285750Y319300D03*
X215900Y319300D03*
X215900Y290300D03*
X152400Y319300D03*
X152400Y290300D03*
D13*
X749300Y179800D03*
X749300Y204800D03*
X749300Y229800D03*
X749300Y254800D03*
X749300Y279800D03*
D14*
X749300Y304800D03*
D13*
X673100Y179800D03*
X673100Y204800D03*
X673100Y229800D03*
X673100Y254800D03*
X673100Y279800D03*
D14*
X673100Y304800D03*
D13*
X603250Y64300D03*
X603250Y89300D03*
D14*
X603250Y114300D03*
D13*
X673100Y64300D03*
X673100Y89300D03*
D14*
X673100Y114300D03*
D13*
X749300Y39300D03*
X749300Y64300D03*
X749300Y89300D03*
D14*
X749300Y114300D03*
D13*
X533400Y254800D03*
X533400Y279800D03*
D14*
X533400Y304800D03*
D13*
X603250Y179800D03*
X603250Y204800D03*
X603250Y229800D03*
X603250Y254800D03*
X603250Y279800D03*
D14*
X603250Y304800D03*
D11*
X146550Y134500D03*
X159250Y134500D03*
X171950Y134500D03*
X184650Y134500D03*
X197350Y134500D03*
X210050Y134500D03*
X222750Y134500D03*
X222750Y190500D03*
X210050Y190500D03*
X197350Y190500D03*
X184650Y190500D03*
X171950Y190500D03*
X159250Y190500D03*
X146550Y190500D03*
D15*
X535940Y107950D03*
X510540Y43950D03*
X561340Y43950D03*
D16*
X120650Y25400D02*
X120650Y165100D01*
X158750Y135000D02*
X159250Y134500D01*
X158750Y135000D02*
X158750Y152400D01*
X144744Y152400D01*
X144744Y165100D01*
X120650Y165100D01*
X196900Y162052D02*
X197350Y134500D01*
X196900Y162052D02*
X152908Y162052D01*
X146050Y25400D02*
X133350Y12700D01*
X107950Y12700D01*
X107950Y171450D01*
X152908Y171450D01*
X152908Y162052D01*
X210050Y179070D02*
X210050Y190500D01*
D17*
X267462Y161290D03*
D16*
X215892Y173228D02*
X210050Y179070D01*
X215892Y173228D02*
X225552Y173228D01*
X239776Y187452D01*
X267208Y187452D01*
X267208Y161544D01*
X267462Y161290D01*
X171950Y190500D02*
X171450Y191000D01*
X171450Y234950D01*
X159258Y247142D01*
X130350Y287528D02*
X94234Y287528D01*
X57222Y56098D02*
X62520Y50800D01*
X57222Y56098D02*
X57222Y271090D01*
X73152Y287020D01*
D17*
X73152Y287020D03*
X94234Y287528D03*
D16*
X196850Y44450D02*
X196850Y25400D01*
X196850Y44450D02*
X184150Y44450D01*
D17*
X184150Y44450D03*
X62520Y50800D03*
D16*
X159258Y258620D02*
X130350Y287528D01*
X159258Y258620D02*
X159258Y247142D01*
X412750Y107950D02*
X431800Y107950D01*
D17*
X431800Y107950D03*
X410210Y228600D03*
D16*
X260350Y224790D02*
X256540Y228600D01*
X260350Y224790D02*
X321310Y224790D01*
X327660Y231140D01*
X407670Y231140D01*
X410210Y228600D01*
X256540Y228600D02*
X196850Y228600D01*
X196850Y227620D01*
D17*
X196850Y227620D03*
X158750Y273050D03*
D16*
X152400Y279400D02*
X152400Y290300D01*
X152400Y279400D02*
X158750Y273050D01*
D17*
X292100Y165100D03*
D16*
X336550Y165100D02*
X336550Y163950D01*
X336550Y165100D02*
X292100Y165100D01*
D17*
X232918Y277622D03*
D16*
X215900Y277622D01*
X215900Y290300D01*
D17*
X247650Y44450D03*
D16*
X292100Y44450D01*
D17*
X292100Y44450D03*
X469900Y156210D03*
D16*
X420490Y156210D01*
X412750Y163950D01*
D17*
X374650Y50800D03*
D16*
X323850Y50800D01*
X323850Y25400D01*
X285750Y279400D02*
X285750Y290300D01*
X285750Y279400D02*
X293370Y271780D01*
D17*
X406400Y274030D03*
D16*
X404150Y271780D01*
X293370Y271780D01*
D17*
X337058Y279618D03*
D16*
X347740Y290300D01*
X349250Y290300D01*
X336550Y107950D02*
X323850Y107950D01*
X317500Y114300D01*
D17*
X317500Y114300D03*
D18*
X317500Y101600D02*
X203200Y101600D01*
X317500Y101600D02*
X317500Y82550D01*
X322834Y77216D01*
D17*
X149860Y209550D03*
D16*
X146550Y206240D01*
X146550Y190500D01*
D17*
X203200Y101600D03*
D18*
X322834Y77216D02*
X374650Y77216D01*
X374650Y107950D01*
X374650Y77216D02*
X401066Y77216D01*
X412750Y88900D01*
X508000Y88900D01*
X514350Y82550D01*
X571500Y82550D01*
X578250Y89300D02*
X603250Y89300D01*
X578250Y89300D02*
X571500Y82550D01*
D16*
X184150Y290300D02*
X184150Y304800D01*
D18*
X203200Y304800D02*
X247650Y304800D01*
X203200Y304800D02*
X184150Y304800D01*
D16*
X247650Y304800D02*
X247650Y290300D01*
D18*
X247650Y304800D02*
X317500Y304800D01*
D16*
X317500Y290300D01*
D18*
X317500Y304800D02*
X381000Y304800D01*
D16*
X381000Y290300D01*
D18*
X533400Y304800D02*
X603250Y304800D01*
X673100Y304800D01*
X692150Y304800D01*
X749300Y304800D01*
X692150Y190500D02*
X673100Y179800D01*
X692150Y190500D02*
X692150Y304800D01*
X673100Y114300D02*
X603250Y114300D01*
D17*
X533400Y44450D03*
D18*
X510540Y44450D01*
D16*
X510540Y43950D01*
D17*
X133350Y88900D03*
D18*
X133350Y134029D01*
X146550Y134500D01*
D16*
X187905Y120904D02*
X222708Y120904D01*
X222708Y133333D01*
X222708Y152400D01*
X222750Y134500D02*
X222708Y133333D01*
D17*
X133350Y152400D03*
D18*
X95250Y304800D02*
X184150Y304800D01*
X381000Y304800D02*
X533400Y304800D01*
D16*
X277114Y187960D02*
X277114Y185710D01*
X277114Y152400D02*
X222708Y152400D01*
X184650Y134500D02*
X184650Y124159D01*
X187905Y120904D01*
X374650Y163950D02*
X374650Y184150D01*
X370840Y187960D01*
X277114Y187960D01*
D18*
X603250Y279800D02*
X603250Y304800D01*
D17*
X95250Y304800D03*
D18*
X203200Y304800D02*
X203200Y302804D01*
D17*
X203200Y302804D03*
D16*
X197350Y178300D02*
X191516Y172466D01*
X159250Y190500D02*
X158750Y190000D01*
X95250Y234950D02*
X95250Y254000D01*
X95250Y234950D02*
X158750Y234950D01*
X158750Y190000D01*
X165608Y172466D02*
X191516Y172466D01*
X165608Y172466D02*
X158750Y179324D01*
X158750Y190000D01*
X133350Y152400D02*
X146550Y139200D01*
X146550Y134500D01*
X197350Y178300D02*
X197350Y190500D01*
D17*
X277114Y185710D03*
D16*
X277114Y152400D01*
D17*
X387350Y89888D03*
D16*
X547878Y182372D02*
X583438Y182372D01*
X591566Y190500D01*
X641350Y190500D01*
X665480Y166370D02*
X695988Y166370D01*
X699770Y170152D01*
D17*
X699770Y170152D03*
D16*
X665480Y166370D02*
X641350Y190500D01*
D17*
X457200Y177800D03*
D16*
X464820Y185420D01*
X544830Y185420D01*
X547878Y182372D01*
X387350Y107950D02*
X387350Y89888D01*
X731794Y229800D02*
X749300Y229800D01*
X731794Y229800D02*
X731774Y230124D01*
X731774Y149860D01*
X361950Y148590D02*
X361950Y163950D01*
X599440Y149860D02*
X731774Y149860D01*
X599440Y149860D02*
X590550Y158750D01*
X495300Y158750D01*
X485140Y148590D02*
X361950Y148590D01*
X485140Y148590D02*
X495300Y158750D01*
X721622Y254800D02*
X749300Y254800D01*
X721622Y254800D02*
X721614Y255106D01*
X721614Y155956D01*
X438150Y182880D02*
X387350Y182880D01*
X387350Y163950D01*
X639064Y155956D02*
X721614Y155956D01*
X639064Y155956D02*
X629920Y165100D01*
X438150Y165100D02*
X438150Y182880D01*
X438150Y165100D02*
X629920Y165100D01*
X361950Y128270D02*
X361950Y107950D01*
D17*
X641350Y127000D03*
X641350Y165100D03*
D16*
X645160Y161290D02*
X710184Y161290D01*
X645160Y161290D02*
X641350Y165100D01*
X710184Y161290D02*
X710184Y280416D01*
X748684Y280416D02*
X749300Y279800D01*
X748684Y280416D02*
X710184Y280416D01*
X640080Y128270D02*
X641350Y127000D01*
X640080Y128270D02*
X361950Y128270D01*
D17*
X400050Y63500D03*
D16*
X400050Y25400D01*
X400050Y63500D02*
X411226Y74676D01*
X592874Y74676D02*
X603250Y64300D01*
X592874Y74676D02*
X411226Y74676D01*
D17*
X508000Y143510D03*
X247650Y133350D03*
D18*
X298450Y133350D01*
X304800Y127000D01*
X349250Y127000D01*
X358140Y135890D01*
X500380Y135890D02*
X508000Y143510D01*
X500380Y135890D02*
X358140Y135890D01*
D16*
X427990Y68580D02*
X584200Y68580D01*
X427990Y68580D02*
X412750Y53340D01*
X584200Y68580D02*
X584200Y38100D01*
X673100Y38100D01*
X673100Y64300D01*
X387350Y12700D02*
X374650Y25400D01*
X387350Y12700D02*
X412750Y12700D01*
X412750Y53340D01*
D17*
X342900Y63500D03*
D16*
X292100Y63500D02*
X273050Y82550D01*
D17*
X273050Y82550D03*
D16*
X292100Y63500D02*
X342900Y63500D01*
X561340Y43950D02*
X565650Y43950D01*
X584200Y25400D01*
D17*
X584200Y25400D03*
X69850Y323850D03*
D16*
X82550Y311150D02*
X82550Y40640D01*
X69850Y27940D02*
X69850Y25400D01*
X69850Y27940D02*
X82550Y40640D01*
X82550Y311150D02*
X69850Y323850D01*
D17*
X317500Y142240D03*
D16*
X749300Y139700D02*
X749300Y114300D01*
X318770Y143510D02*
X317500Y142240D01*
X486410Y143510D02*
X495300Y152400D01*
X595630Y139700D02*
X749300Y139700D01*
X486410Y143510D02*
X318770Y143510D01*
X495300Y152400D02*
X582930Y152400D01*
X595630Y139700D01*
X247650Y319300D02*
X215900Y319300D01*
X184150Y319300D02*
X152400Y319300D01*
X285750Y319300D02*
X317500Y319300D01*
X349250Y319300D02*
X381000Y319300D01*
D17*
X285750Y233680D03*
D16*
X321310Y237490D02*
X419100Y237490D01*
X317500Y233680D02*
X285750Y233680D01*
X317500Y233680D02*
X321310Y237490D01*
X419100Y237490D02*
X419100Y216620D01*
X534192Y216620D02*
X578259Y254350D01*
X603250Y254800D01*
X534192Y216620D02*
X419100Y216620D01*
D17*
X292608Y209550D03*
D16*
X297053Y205105D02*
X553495Y205105D01*
X297053Y205105D02*
X292608Y209550D01*
X553495Y205105D02*
X578190Y229800D01*
X603250Y229800D01*
X287782Y201168D02*
X255560Y201168D01*
X566750Y204800D02*
X603250Y204800D01*
X290830Y198120D02*
X287782Y201168D01*
X290830Y198120D02*
X560070Y198120D01*
X566750Y204800D01*
D17*
X255560Y201168D03*
X495300Y177800D03*
D16*
X501650Y171450D01*
X594900Y171450D02*
X603250Y179800D01*
X594900Y171450D02*
X501650Y171450D01*
X222250Y254000D02*
X222250Y266700D01*
X417068Y266700D01*
X417068Y295946D01*
D17*
X417068Y295946D03*
D16*
X234950Y114300D02*
X177020Y114300D01*
X177018Y114192D01*
X171950Y119260D01*
X171950Y134500D01*
X234950Y139700D02*
X234950Y114300D01*
X234950Y139700D02*
X241300Y146050D01*
X282956Y146050D01*
X282956Y177800D01*
X304800Y177800D01*
D17*
X304800Y177800D03*
X577850Y241300D03*
D16*
X547370Y210820D01*
D17*
X245872Y219202D03*
X247396Y178562D03*
D16*
X245872Y219202D02*
X400050Y219202D01*
X400050Y210820D01*
X547370Y210820D01*
X247396Y178562D02*
X247396Y167132D01*
X242316Y162052D02*
X209804Y162052D01*
X242316Y162052D02*
X247396Y167132D01*
X209804Y162052D02*
X209804Y134746D01*
X210050Y134500D01*
X225290Y193040D02*
X562610Y193040D01*
X225290Y193040D02*
X222750Y190500D01*
X562610Y193040D02*
X565150Y190500D01*
D17*
X565150Y190500D03*
X577850Y292100D03*
D16*
X577662Y291912D01*
X486807Y291912D01*
X265351Y242542D02*
X257759Y234950D01*
X265351Y242542D02*
X437437Y242542D01*
X184150Y234950D02*
X184150Y191000D01*
X184650Y190500D01*
X184150Y234950D02*
X257759Y234950D01*
X437437Y242542D02*
X438150Y243255D01*
X438150Y292100D01*
X486619Y292100D01*
X486807Y291912D01*
X349250Y180340D02*
X349250Y163950D01*
D17*
X349250Y180340D03*
X349250Y88900D03*
D16*
X349250Y107950D01*
X400050Y163950D02*
X400050Y177800D01*
X429260Y177800D01*
X429260Y171450D01*
D17*
X429260Y171450D03*
X457200Y107950D03*
D16*
X535940Y107950D01*
X400050Y107950D02*
X400050Y120650D01*
X401320Y121920D01*
X457200Y121920D01*
X457200Y107950D01*
M02*
