M48
;GenerationSoftware,Autodesk,EAGLE,9.6.2*%
;CreationDate,2021-10-05T20:42:47Z*%
FMAT,2
ICI,OFF
METRIC,TZ,000.000
T4C0.450
T3C0.900
T2C1.000
T1C3.175
%
G90
M71
T1
X2921Y3429
X46609Y24486
X2921Y24486
X46609Y3454
T2
X67310Y22980
X67310Y20480
X67310Y17980
X74930Y30480
X74930Y27980
X74930Y25480
X74930Y22980
X74930Y20480
X74930Y17980
X67310Y11430
X60325Y30480
X60325Y27980
X60325Y25480
X60325Y22980
X60325Y20480
X60325Y17980
X53340Y30480
X53340Y27980
X53340Y25480
X74930Y11430
X74930Y8930
X74930Y6430
X74930Y3930
X67310Y8930
X67310Y6430
X60325Y11430
X60325Y8930
X60325Y6430
X67310Y30480
X67310Y27980
X67310Y25480
T3
X40005Y25400
X37465Y25400
X34925Y25400
X29845Y25400
X27305Y25400
X24765Y25400
X22225Y25400
X19685Y25400
X17145Y25400
X14605Y25400
X12065Y25400
X9525Y25400
X6985Y25400
X22225Y2540
X6985Y2540
X9525Y2540
X12065Y2540
X14605Y2540
X17145Y2540
X19685Y2540
X32385Y25400
X24765Y2540
X27305Y2540
X29845Y2540
X32385Y2540
X34925Y2540
X37465Y2540
X40005Y2540
X42545Y2540
X42545Y25400
T4
X23063Y6604
X58674Y8204
X60223Y13970
X55245Y15240
X23089Y7823
X56007Y8306
X45720Y8695
X34925Y8695
X45635Y13608
X38642Y13335
X30607Y22428
X12065Y6020
X30480Y5080
X58318Y14461
X69850Y4445
X34265Y21412
X40733Y13877
X34290Y18508
X57150Y18415
X55677Y12446
X27949Y18872
X30582Y18872
X63500Y10160
X55245Y10160
X43332Y29007
X40640Y29210
X76835Y10795
X34290Y23190
X20879Y23393
X34874Y16535
X24858Y12065
X20955Y27940
X24858Y14605
X34341Y10973
X24968Y4328
X53340Y5715
X62230Y2540
X9525Y30480
X37998Y17526
X47625Y17577
X12700Y8255
X33655Y27940
X33249Y19685
X24105Y19634
X28575Y27940
M30