M48
;GenerationSoftware,Autodesk,EAGLE,9.6.2*%
;CreationDate,2021-09-25T08:24:38Z*%
FMAT,2
ICI,OFF
METRIC,TZ,000.000
T4C0.450
T3C0.900
T2C1.000
T1C3.175
%
G90
M71
T1
X46609Y3454
X2921Y24486
X2921Y3429
X46609Y24486
T2
X60325Y11430
X60325Y8930
X60325Y6430
X67310Y30480
X67310Y27980
X67310Y25480
X67310Y22980
X67310Y20480
X67310Y17980
X74930Y30480
X67310Y8930
X74930Y27980
X74930Y25480
X74930Y22980
X74930Y20480
X74930Y17980
X74930Y3930
X67310Y11430
X67310Y6430
X60325Y30480
X60325Y27980
X60325Y25480
X60325Y22980
X60325Y20480
X60325Y17980
X53340Y30480
X53340Y27980
X53340Y25480
X74930Y11430
X74930Y8930
X74930Y6430
T3
X24765Y2540
X27305Y2540
X29845Y2540
X32385Y2540
X34925Y2540
X37465Y2540
X40005Y2540
X42545Y2540
X40005Y25400
X37465Y25400
X34925Y25400
X32385Y25400
X29845Y25400
X27305Y25400
X24765Y25400
X22225Y25400
X19685Y25400
X17145Y25400
X14605Y25400
X12065Y25400
X9525Y25400
X6985Y25400
X9525Y2540
X6985Y2540
X42545Y25400
X12065Y2540
X14605Y2540
X17145Y2540
X19685Y2540
X22225Y2540
T4
X26746Y16129
X7315Y28702
X9423Y28753
X18415Y4445
X6252Y5080
X43180Y10795
X41021Y22860
X19685Y22762
X15875Y27305
X29210Y16510
X23292Y27762
X24765Y4445
X29210Y4445
X46990Y15621
X40640Y27403
X33706Y27962
X31750Y11430
X14986Y20955
X20320Y10160
X53340Y4445
X13335Y8890
X13335Y15240
X57785Y24130
X45720Y10795
X42926Y17145
X34925Y8890
X34925Y18034
X57785Y29210
X56515Y19050
X24740Y17856
X24587Y21920
X30480Y17780
X41707Y29595
X49530Y17780
X25556Y20117
X29261Y20955
X28575Y23368
X31750Y14224
X6985Y32385
X37465Y5080
X58420Y2540
X27305Y8255
X34290Y6350
X24765Y13335
X50800Y14351
X40005Y6350
X64135Y16510
X64135Y12700
X45720Y17780
X69977Y17015
X38735Y8989
X27711Y18571
X20320Y30280
X9525Y30480
M30