G04 EAGLE Gerber RS-274X export*
G75*
%MOMM*%
%FSLAX34Y34*%
%LPD*%
%INTop Copper*%
%IPPOS*%
%AMOC8*
5,1,8,0,0,1.08239X$1,22.5*%
G01*
%ADD10C,1.408000*%
%ADD11R,1.700000X0.900000*%
%ADD12C,1.508000*%
%ADD13R,1.508000X1.508000*%
%ADD14R,1.200000X3.300000*%
%ADD15C,0.856400*%
%ADD16C,0.203200*%
%ADD17C,0.406400*%


D10*
X69850Y25400D03*
X95250Y25400D03*
X120650Y25400D03*
X146050Y25400D03*
X171450Y25400D03*
X196850Y25400D03*
X222250Y25400D03*
X247650Y25400D03*
X273050Y25400D03*
X298450Y25400D03*
X323850Y25400D03*
X349250Y25400D03*
X374650Y25400D03*
X400050Y25400D03*
X425450Y25400D03*
X425450Y254000D03*
X400050Y254000D03*
X374650Y254000D03*
X349250Y254000D03*
X323850Y254000D03*
X298450Y254000D03*
X273050Y254000D03*
X247650Y254000D03*
X222250Y254000D03*
X196850Y254000D03*
X171450Y254000D03*
X146050Y254000D03*
X120650Y254000D03*
X95250Y254000D03*
X69850Y254000D03*
D11*
X381000Y319300D03*
X381000Y290300D03*
X317500Y319300D03*
X317500Y290300D03*
X247650Y319300D03*
X247650Y290300D03*
X184150Y319300D03*
X184150Y290300D03*
X349250Y319300D03*
X349250Y290300D03*
X285750Y290300D03*
X285750Y319300D03*
X215900Y319300D03*
X215900Y290300D03*
X152400Y319300D03*
X152400Y290300D03*
D12*
X749300Y179800D03*
X749300Y204800D03*
X749300Y229800D03*
X749300Y254800D03*
X749300Y279800D03*
D13*
X749300Y304800D03*
D12*
X673100Y179800D03*
X673100Y204800D03*
X673100Y229800D03*
X673100Y254800D03*
X673100Y279800D03*
D13*
X673100Y304800D03*
D12*
X603250Y64300D03*
X603250Y89300D03*
D13*
X603250Y114300D03*
D12*
X673100Y64300D03*
X673100Y89300D03*
D13*
X673100Y114300D03*
D12*
X749300Y39300D03*
X749300Y64300D03*
X749300Y89300D03*
D13*
X749300Y114300D03*
D12*
X533400Y254800D03*
X533400Y279800D03*
D13*
X533400Y304800D03*
D12*
X603250Y179800D03*
X603250Y204800D03*
X603250Y229800D03*
X603250Y254800D03*
X603250Y279800D03*
D13*
X603250Y304800D03*
D14*
X535940Y107950D03*
X510540Y43950D03*
X561340Y43950D03*
D15*
X230632Y66040D03*
D16*
X300990Y66040D01*
X306578Y71628D01*
X576208Y71628D01*
X585860Y81280D01*
X586740Y81280D01*
X586740Y82042D01*
D15*
X586740Y82042D03*
X602234Y139700D03*
D16*
X598678Y152400D02*
X552450Y152400D01*
X602234Y148844D02*
X602234Y139700D01*
X602234Y148844D02*
X598678Y152400D01*
D15*
X552450Y152400D03*
X230886Y78232D03*
D16*
X232156Y79502D01*
X556514Y79502D02*
X560070Y83058D01*
X556514Y79502D02*
X232156Y79502D01*
D15*
X560070Y83058D03*
X457200Y86954D03*
D16*
X456778Y87376D01*
X349250Y87376D01*
X349250Y86954D01*
D15*
X349250Y86954D03*
X456352Y136081D03*
D16*
X390091Y128950D02*
X386420Y132621D01*
X386420Y133350D01*
X449221Y128950D02*
X456352Y136081D01*
X449221Y128950D02*
X390091Y128950D01*
D15*
X386420Y133350D03*
X306070Y224282D03*
D16*
X305054Y223266D01*
X158750Y223266D01*
X158750Y283950D02*
X152400Y290300D01*
X158750Y283950D02*
X158750Y223266D01*
D15*
X120650Y60198D03*
D16*
X297688Y57912D02*
X304800Y50800D01*
X122936Y57912D02*
X120650Y60198D01*
X122936Y57912D02*
X297688Y57912D01*
D15*
X304800Y50800D03*
X209550Y279400D03*
D16*
X209550Y283950D01*
X215900Y290300D01*
D15*
X285750Y279400D03*
D16*
X285750Y290300D01*
D15*
X241046Y196342D03*
D16*
X331978Y196342D01*
X332486Y196850D01*
D15*
X332486Y196850D03*
X336550Y279400D03*
D16*
X349250Y279400D01*
X349250Y290300D01*
D15*
X127000Y82550D03*
D17*
X515978Y85862D02*
X548283Y85862D01*
X139700Y95250D02*
X127000Y82550D01*
X139700Y95250D02*
X234950Y95250D01*
X506590Y95250D01*
X515978Y85862D01*
X548283Y85862D02*
X554791Y92370D01*
X600180Y92370D01*
X603250Y89300D01*
X635000Y89300D01*
X673100Y89300D01*
X234950Y95250D02*
X234950Y175260D01*
D15*
X476250Y175768D03*
D17*
X379984Y175260D02*
X234950Y175260D01*
X475996Y175514D02*
X476250Y175768D01*
X475996Y175514D02*
X378460Y175514D01*
D16*
X378206Y175260D01*
X379984Y175260D01*
D15*
X379984Y175260D03*
D17*
X561340Y43950D02*
X568190Y50800D01*
X635000Y50800D01*
X635000Y89300D01*
D16*
X184150Y290300D02*
X184150Y304800D01*
D17*
X247650Y304800D01*
D16*
X247650Y290300D01*
D17*
X247650Y304800D02*
X317500Y304800D01*
D16*
X317500Y290300D01*
D17*
X317500Y304800D02*
X381000Y304800D01*
D16*
X381000Y290300D01*
D17*
X533400Y304800D02*
X603250Y304800D01*
X673100Y304800D01*
X692150Y304800D01*
X749300Y304800D01*
X692150Y190500D02*
X673100Y179800D01*
X692150Y190500D02*
X692150Y304800D01*
D16*
X510540Y44450D02*
X510540Y43950D01*
D17*
X184150Y304800D02*
X95250Y304800D01*
X381000Y304800D02*
X533400Y304800D01*
X603250Y304800D02*
X603250Y279800D01*
D15*
X95250Y304800D03*
D17*
X603250Y114300D02*
X673100Y114300D01*
X273050Y44450D02*
X273050Y25400D01*
X273050Y44450D02*
X247650Y44450D01*
X95250Y44450D01*
X95250Y25400D01*
D16*
X510540Y44450D02*
X533400Y44450D01*
D17*
X533400Y20574D01*
X622300Y20574D01*
X622300Y25400D01*
D15*
X622300Y25400D03*
D17*
X533400Y44450D02*
X533400Y57150D01*
D15*
X533400Y57150D03*
D16*
X249253Y42847D02*
X247650Y44450D01*
X249253Y42847D02*
X249682Y43276D01*
D15*
X249682Y43276D03*
D16*
X749300Y204800D02*
X760400Y204800D01*
X764032Y201168D01*
X764032Y126492D01*
X571641Y126492D01*
X565047Y133086D01*
X500878Y133086D01*
X477520Y109728D01*
X343408Y109728D01*
D15*
X343408Y109728D03*
D16*
X724075Y229800D02*
X749300Y229800D01*
X724154Y228538D02*
X724075Y229800D01*
X724154Y228538D02*
X724154Y149860D01*
X621792Y149860D01*
D15*
X248580Y146050D03*
D16*
X254676Y152146D01*
X492760Y152146D01*
X500294Y159680D02*
X611972Y159680D01*
X500294Y159680D02*
X492760Y152146D01*
X611972Y159680D02*
X621792Y149860D01*
D15*
X248580Y120650D03*
D16*
X474472Y120650D01*
X493268Y139446D01*
X566285Y139446D01*
X761200Y254800D02*
X764540Y251460D01*
X761200Y254800D02*
X749300Y254800D01*
X574327Y131404D02*
X566285Y139446D01*
X574327Y131404D02*
X721954Y131404D01*
X733044Y142494D01*
X733044Y217932D01*
X764540Y217932D01*
X764540Y251460D01*
X710184Y165100D02*
X651510Y165100D01*
X710184Y165100D02*
X710184Y280416D01*
X748684Y280416D02*
X749300Y279800D01*
X748684Y280416D02*
X710184Y280416D01*
D15*
X348742Y165354D03*
D16*
X348996Y165100D01*
X651510Y165100D01*
D15*
X208788Y233934D03*
D17*
X208788Y233426D02*
X341376Y233426D01*
X208788Y233934D02*
X208788Y233426D01*
X341376Y233426D02*
X342900Y231902D01*
D15*
X342900Y231902D03*
D16*
X748500Y63500D02*
X749300Y64300D01*
D15*
X768350Y107950D03*
D16*
X768350Y63500D01*
X748500Y63500D01*
X247650Y319300D02*
X215900Y319300D01*
X184150Y319300D02*
X152400Y319300D01*
X285750Y319300D02*
X317500Y319300D01*
X349250Y319300D02*
X381000Y319300D01*
X578259Y254350D02*
X603250Y254800D01*
X578259Y254350D02*
X577580Y255030D01*
X412750Y298450D02*
X406400Y292100D01*
D15*
X406400Y292100D03*
D16*
X412750Y298450D02*
X501396Y298450D01*
X577580Y275352D02*
X577580Y255030D01*
X577580Y275352D02*
X560832Y292100D01*
X507746Y292100D01*
X501396Y298450D01*
D15*
X433324Y290068D03*
D16*
X497332Y290068D01*
X520700Y266700D01*
X565150Y266700D01*
X565150Y228600D01*
X602050Y228600D01*
X603250Y229800D01*
X247650Y241300D02*
X247650Y254000D01*
X247650Y241300D02*
X365896Y241300D01*
X372246Y234950D02*
X420370Y234950D01*
X372246Y234950D02*
X365896Y241300D01*
X420370Y234950D02*
X445516Y209804D01*
X602234Y204800D02*
X603250Y204800D01*
X602234Y204800D02*
X597230Y209804D01*
X445516Y209804D01*
X222250Y254000D02*
X222250Y269240D01*
X603250Y179800D02*
X622300Y198850D01*
X455266Y217424D02*
X438150Y234540D01*
X438150Y269240D01*
X622300Y217424D02*
X622300Y198850D01*
X622300Y217424D02*
X455266Y217424D01*
X438150Y269240D02*
X222250Y269240D01*
D15*
X552450Y101600D03*
D16*
X635000Y101600D01*
D15*
X635000Y101600D03*
X305816Y188722D03*
X279486Y188722D03*
D16*
X305816Y188722D01*
X535940Y111506D02*
X548894Y124460D01*
X535940Y111506D02*
X535940Y107950D01*
X548894Y124460D02*
X556768Y124460D01*
D15*
X556768Y124460D03*
X571500Y184150D03*
D16*
X570570Y183220D01*
X481126Y183220D01*
X476218Y188128D02*
X345948Y188128D01*
X342900Y185080D01*
X476218Y188128D02*
X481126Y183220D01*
D15*
X342900Y185080D03*
X407330Y138770D03*
D16*
X413172Y144612D02*
X583184Y144612D01*
X413172Y144612D02*
X407330Y138770D01*
D15*
X583184Y144612D03*
X342646Y214122D03*
D17*
X69850Y214122D02*
X69850Y254000D01*
X69850Y214122D02*
X342646Y214122D01*
D16*
X69850Y51816D02*
X69850Y25400D01*
X69850Y51816D02*
X284734Y51816D01*
X298450Y38100D01*
X374650Y38100D01*
X401574Y65024D01*
X487172Y65024D01*
X495300Y56896D01*
X495300Y13208D01*
X698500Y13208D01*
X698500Y44450D01*
D15*
X698500Y44450D03*
M02*
