G04 EAGLE Gerber RS-274X export*
G75*
%MOMM*%
%FSLAX34Y34*%
%LPD*%
%INSoldermask Bottom*%
%IPPOS*%
%AMOC8*
5,1,8,0,0,1.08239X$1,22.5*%
G01*
%ADD10C,1.611200*%
%ADD11C,3.378200*%
%ADD12R,1.903200X1.103200*%
%ADD13R,1.103200X1.903200*%
%ADD14R,1.953200X0.853200*%
%ADD15R,6.503200X6.303200*%
%ADD16R,1.703200X3.003200*%
%ADD17R,1.524000X9.017000*%
%ADD18R,1.803200X1.403200*%
%ADD19C,1.711200*%
%ADD20R,1.711200X1.711200*%
%ADD21R,2.303200X1.703200*%
%ADD22C,1.059600*%


D10*
X69850Y25400D03*
X95250Y25400D03*
X120650Y25400D03*
X146050Y25400D03*
X171450Y25400D03*
X196850Y25400D03*
X222250Y25400D03*
X247650Y25400D03*
X273050Y25400D03*
X298450Y25400D03*
X323850Y25400D03*
X349250Y25400D03*
X374650Y25400D03*
X400050Y25400D03*
X425450Y25400D03*
X425450Y254000D03*
X400050Y254000D03*
X374650Y254000D03*
X349250Y254000D03*
X323850Y254000D03*
X298450Y254000D03*
X273050Y254000D03*
X247650Y254000D03*
X222250Y254000D03*
X196850Y254000D03*
X171450Y254000D03*
X146050Y254000D03*
X120650Y254000D03*
X95250Y254000D03*
X69850Y254000D03*
D11*
X29210Y244856D03*
X29210Y34290D03*
X466090Y244856D03*
X466090Y34544D03*
D12*
X393700Y224050D03*
X393700Y195050D03*
X419100Y195050D03*
X419100Y224050D03*
D13*
X725700Y203200D03*
X696700Y203200D03*
X725700Y228600D03*
X696700Y228600D03*
X725700Y254000D03*
X696700Y254000D03*
X725700Y279400D03*
X696700Y279400D03*
D14*
X323850Y165100D03*
X323850Y152400D03*
X323850Y139700D03*
X323850Y127000D03*
X323850Y114300D03*
X323850Y101600D03*
X323850Y88900D03*
X267850Y88900D03*
X267850Y101600D03*
X267850Y114300D03*
X267850Y127000D03*
X267850Y139700D03*
X267850Y152400D03*
X267850Y165100D03*
D15*
X127000Y158350D03*
D16*
X149800Y95350D03*
X104200Y95350D03*
D17*
X186690Y169545D03*
X67310Y169545D03*
D18*
X181864Y61232D03*
X181864Y95232D03*
X70612Y63264D03*
X70612Y97264D03*
D19*
X749300Y179800D03*
X749300Y204800D03*
X749300Y229800D03*
X749300Y254800D03*
X749300Y279800D03*
D20*
X749300Y304800D03*
D19*
X673100Y179800D03*
X673100Y204800D03*
X673100Y229800D03*
X673100Y254800D03*
X673100Y279800D03*
D20*
X673100Y304800D03*
D19*
X603250Y64300D03*
X603250Y89300D03*
D20*
X603250Y114300D03*
D19*
X673100Y64300D03*
X673100Y89300D03*
D20*
X673100Y114300D03*
D19*
X749300Y39300D03*
X749300Y64300D03*
X749300Y89300D03*
D20*
X749300Y114300D03*
D19*
X533400Y254800D03*
X533400Y279800D03*
D20*
X533400Y304800D03*
D19*
X603250Y179800D03*
X603250Y204800D03*
X603250Y229800D03*
X603250Y254800D03*
X603250Y279800D03*
D20*
X603250Y304800D03*
D14*
X532250Y165600D03*
X532250Y152900D03*
X532250Y140200D03*
X532250Y127500D03*
X532250Y114800D03*
X532250Y102100D03*
X532250Y89400D03*
X476250Y89400D03*
X476250Y102100D03*
X476250Y114800D03*
X476250Y127500D03*
X476250Y140200D03*
X476250Y152900D03*
X476250Y165600D03*
D13*
X626850Y205232D03*
X655850Y205232D03*
X626850Y232156D03*
X655850Y232156D03*
X626850Y257048D03*
X655850Y257048D03*
X626850Y283464D03*
X655850Y283464D03*
D14*
X425450Y165100D03*
X425450Y152400D03*
X425450Y139700D03*
X425450Y127000D03*
X425450Y114300D03*
X425450Y101600D03*
X425450Y88900D03*
X369450Y88900D03*
X369450Y101600D03*
X369450Y114300D03*
X369450Y127000D03*
X369450Y139700D03*
X369450Y152400D03*
X369450Y165100D03*
D21*
X361950Y227550D03*
X361950Y191550D03*
D13*
X725700Y114300D03*
X696700Y114300D03*
X725700Y63500D03*
X696700Y63500D03*
D22*
X230632Y66040D03*
X586740Y82042D03*
X602234Y139700D03*
X552450Y152400D03*
X230886Y78232D03*
X560070Y83058D03*
X457200Y86954D03*
X349250Y86954D03*
X456352Y136081D03*
X386420Y133350D03*
X306070Y224282D03*
X120650Y60198D03*
X304800Y50800D03*
X209550Y279400D03*
X285750Y279400D03*
X241046Y196342D03*
X332486Y196850D03*
X336550Y279400D03*
X127000Y82550D03*
X476250Y175768D03*
X379984Y175260D03*
X95250Y304800D03*
X622300Y25400D03*
X533400Y57150D03*
X249682Y43276D03*
X343408Y109728D03*
X248580Y146050D03*
X248580Y120650D03*
X348742Y165354D03*
X208788Y233934D03*
X342900Y231902D03*
X768350Y107950D03*
X406400Y292100D03*
X433324Y290068D03*
X552450Y101600D03*
X635000Y101600D03*
X305816Y188722D03*
X279486Y188722D03*
X556768Y124460D03*
X571500Y184150D03*
X342900Y185080D03*
X407330Y138770D03*
X583184Y144612D03*
X342646Y214122D03*
X698500Y44450D03*
M02*
