G04 EAGLE Gerber RS-274X export*
G75*
%MOMM*%
%FSLAX34Y34*%
%LPD*%
%INSolderpaste Bottom*%
%IPPOS*%
%AMOC8*
5,1,8,0,0,1.08239X$1,22.5*%
G01*
%ADD10R,1.700000X0.900000*%
%ADD11R,0.900000X1.700000*%
%ADD12R,1.750000X0.650000*%
%ADD13R,6.300000X6.100000*%
%ADD14R,1.500000X2.800000*%
%ADD15R,1.270000X8.763000*%
%ADD16R,1.600000X1.200000*%
%ADD17R,2.100000X1.500000*%


D10*
X393700Y224050D03*
X393700Y195050D03*
X419100Y195050D03*
X419100Y224050D03*
D11*
X725700Y203200D03*
X696700Y203200D03*
X725700Y228600D03*
X696700Y228600D03*
X725700Y254000D03*
X696700Y254000D03*
X725700Y279400D03*
X696700Y279400D03*
D12*
X323850Y165100D03*
X323850Y152400D03*
X323850Y139700D03*
X323850Y127000D03*
X323850Y114300D03*
X323850Y101600D03*
X323850Y88900D03*
X267850Y88900D03*
X267850Y101600D03*
X267850Y114300D03*
X267850Y127000D03*
X267850Y139700D03*
X267850Y152400D03*
X267850Y165100D03*
D13*
X127000Y158350D03*
D14*
X149800Y95350D03*
X104200Y95350D03*
D15*
X186690Y169545D03*
X67310Y169545D03*
D16*
X181864Y61232D03*
X181864Y95232D03*
X70612Y63264D03*
X70612Y97264D03*
D12*
X532250Y165600D03*
X532250Y152900D03*
X532250Y140200D03*
X532250Y127500D03*
X532250Y114800D03*
X532250Y102100D03*
X532250Y89400D03*
X476250Y89400D03*
X476250Y102100D03*
X476250Y114800D03*
X476250Y127500D03*
X476250Y140200D03*
X476250Y152900D03*
X476250Y165600D03*
D11*
X626850Y205232D03*
X655850Y205232D03*
X626850Y232156D03*
X655850Y232156D03*
X626850Y257048D03*
X655850Y257048D03*
X626850Y283464D03*
X655850Y283464D03*
D12*
X425450Y165100D03*
X425450Y152400D03*
X425450Y139700D03*
X425450Y127000D03*
X425450Y114300D03*
X425450Y101600D03*
X425450Y88900D03*
X369450Y88900D03*
X369450Y101600D03*
X369450Y114300D03*
X369450Y127000D03*
X369450Y139700D03*
X369450Y152400D03*
X369450Y165100D03*
D17*
X361950Y227550D03*
X361950Y191550D03*
D11*
X725700Y114300D03*
X696700Y114300D03*
X725700Y63500D03*
X696700Y63500D03*
M02*
